<?xml version="1.0" encoding="UTF-8" standalone="no"?>
<!-- Created with Inkscape (http://www.inkscape.org/) -->

<svg
   width="230mm"
   height="230mm"
   viewBox="0 0 230 230"
   version="1.1"
   id="svg1"
   xml:space="preserve"
   inkscape:version="1.3.2 (091e20ef0f, 2023-11-25)"
   sodipodi:docname="techco_logo.svg"
   xmlns:inkscape="http://www.inkscape.org/namespaces/inkscape"
   xmlns:sodipodi="http://sodipodi.sourceforge.net/DTD/sodipodi-0.dtd"
   xmlns="http://www.w3.org/2000/svg"
   xmlns:svg="http://www.w3.org/2000/svg"><sodipodi:namedview
     id="namedview1"
     pagecolor="#ffffff"
     bordercolor="#000000"
     borderopacity="0.25"
     inkscape:showpageshadow="2"
     inkscape:pageopacity="0.0"
     inkscape:pagecheckerboard="0"
     inkscape:deskcolor="#d1d1d1"
     inkscape:document-units="mm"
     inkscape:zoom="0.32252323"
     inkscape:cx="607.70817"
     inkscape:cy="663.5181"
     inkscape:window-width="1366"
     inkscape:window-height="700"
     inkscape:window-x="0"
     inkscape:window-y="0"
     inkscape:window-maximized="1"
     inkscape:current-layer="layer1" /><defs
     id="defs1" /><g
     inkscape:label="Capa 1"
     inkscape:groupmode="layer"
     id="layer1"><path
       style="fill:#ffffff;stroke-width:1.89778"
       d="m 28.650889,210.38203 c -2.9769,-1.19291 -4.525757,-4.80088 -3.453548,-8.04487 0.49796,-1.50658 1.983677,-3.10096 12.12708,-13.01394 6.357781,-6.21336 15.086766,-14.77069 19.397732,-19.01628 4.310985,-4.24561 9.191494,-9.02062 10.84562,-10.61115 2.844758,-2.73541 2.978153,-2.93282 2.465543,-3.64862 -2.013718,-2.81183 -4.837714,-7.25974 -6.087044,-9.58732 -0.809897,-1.50889 -1.601994,-2.69462 -1.760212,-2.63495 -0.342645,0.12924 -5.063589,4.70597 -23.327547,22.6151 -24.580426,24.1029 -23.757395,23.3324 -25.216847,23.60754 -4.0273806,0.75925 -7.5939409,-2.24132 -7.5939409,-6.38885 0,-2.24688 0.8515731,-3.67334 3.9507093,-6.61791 1.5365596,-1.45992 9.6019656,-9.33688 17.9231366,-17.50435 19.353001,-18.9955 25.598396,-25.09749 28.004937,-27.36199 l 1.938585,-1.82414 -0.615964,-3.46648 c -0.338792,-1.90656 -0.718994,-6.18667 -0.844893,-9.51138 l -0.228929,-6.0449 -4.923228,4.8291 c -5.031744,4.93555 -6.024683,5.61209 -8.23653,5.61209 -2.840469,0 -5.694468,-2.3472 -6.150221,-5.0581 -0.547681,-3.25763 -0.01518,-4.0805 7.204307,-11.1416 3.650461,-3.57019 8.541939,-8.268718 10.869912,-10.441186 3.799835,-3.545988 4.357859,-4.230955 5.456486,-6.697636 C 63.075835,82.413363 68.27986,73.971455 72.078291,69.479422 75.0929,65.914304 81.440263,59.680467 84.975889,56.812443 103.12344,42.091664 126.28034,34.218484 148.92734,35.06943 c 9.08238,0.34126 15.52121,1.582979 23.24579,4.482886 3.76325,1.412786 9.43757,4.139368 11.1572,5.36118 l 1.01579,0.721708 3.09732,-3.045543 c 3.46725,-3.409291 4.70198,-4.300832 6.53032,-4.715213 3.23212,-0.732544 6.9776,1.515949 7.82938,4.700144 0.84723,3.167172 -0.0761,5.036356 -4.67429,9.463219 l -3.48737,3.357368 1.88161,4.718021 c 2.17731,5.459522 3.03955,8.472727 4.17169,14.578616 1.09958,5.930211 1.19283,19.088166 0.17915,25.278658 -1.98948,12.149906 -4.94985,21.389156 -10.32291,32.217656 -12.05838,24.30162 -32.86675,41.55362 -55.70226,46.18216 -6.2339,1.26355 -11.59379,1.69501 -17.58446,1.41549 l -5.16801,-0.24114 -4.12838,4.00265 c -21.092282,20.44982 -22.54029,21.8025 -23.694939,22.13528 -1.810163,0.5217 -2.823636,0.42861 -4.567034,-0.41951 -4.150052,-2.01888 -4.544431,-8.34283 -0.719544,-11.53818 0.636042,-0.53136 3.537543,-3.29662 6.447774,-6.14504 2.910231,-2.84842 6.824636,-6.63074 8.698678,-8.40515 1.874041,-1.77441 3.348201,-3.27407 3.275934,-3.33258 -0.07231,-0.0585 -1.896531,-0.94658 -4.053873,-1.97351 -3.763209,-1.79135 -8.855625,-4.89241 -11.590235,-7.05797 l -1.294667,-1.02525 -8.366281,8.10214 c -4.60146,4.45617 -14.793275,14.41761 -22.648464,22.1365 -7.855189,7.71892 -14.715124,14.19981 -15.244283,14.402 -1.199569,0.45832 -3.358563,0.43748 -4.560125,-0.044 z M 130.36416,166.881 c 6.4358,-1.50475 13.25905,-4.38143 18.39766,-7.75643 11.21728,-7.36742 22.63222,-20.92389 29.91228,-35.52404 4.9395,-9.90611 8.94932,-22.02396 10.45622,-31.599112 0.29543,-1.877249 0.46839,-6.213019 0.45666,-11.447901 -0.0216,-9.650776 -0.58917,-13.435525 -2.87628,-19.180114 -0.71355,-1.79219 -1.29734,-3.404281 -1.29734,-3.582406 0,-0.178202 2.52804,-2.819802 5.61785,-5.870336 6.58157,-6.497895 7.01235,-7.054799 6.38411,-8.253079 -0.58141,-1.10895 -1.03126,-1.385988 -2.26159,-1.392801 -0.81967,-0.0038 -2.24842,1.185696 -7.44682,6.203605 l -6.43256,6.209204 -1.29632,-1.143775 c -1.44884,-1.278365 -6.62988,-3.838322 -10.24093,-5.060058 -5.03673,-1.704095 -8.61591,-2.24132 -16.29726,-2.446147 -8.48503,-0.226273 -13.31663,0.178961 -20.52373,1.721384 -26.66493,5.706595 -48.577686,20.982874 -58.641458,40.881374 -5.269004,10.418107 -7.4766,22.416742 -6.082603,33.060042 3.271152,24.9756 20.623074,42.84727 44.530401,45.86421 4.19288,0.52912 14.09618,0.14537 17.64171,-0.68362 z M 91.472,126.56289 c -2.358735,-6.06989 -2.851874,-8.97923 -2.830809,-16.70077 0.01708,-6.02169 0.104378,-6.90892 1.013188,-10.215389 1.991211,-7.244748 5.104467,-12.568826 10.415021,-17.810958 3.34932,-3.306166 8.17104,-6.74288 10.92692,-7.788216 1.10362,-0.418613 1.19644,-0.371985 2.96229,1.488507 1.00263,1.056381 1.82297,2.047328 1.82297,2.202092 0,0.154859 -0.8767,0.713509 -1.94823,1.241605 -3.87411,1.909398 -6.32637,3.76357 -10.26467,7.761173 -7.2769,7.386494 -10.80355,15.194826 -11.866934,26.274536 -0.486725,5.07141 -0.285104,8.81634 0.747271,13.88006 0.386654,1.89653 0.667962,3.48014 0.625148,3.5191 -0.04289,0.0389 -0.7638,-1.69432 -1.602165,-3.85174 z m 74.69564,-7.29549 c -1.86294,-1.94895 -7.2357,-7.56199 -11.93948,-12.47337 -4.70377,-4.91141 -8.55261,-9.032936 -8.55297,-9.158949 -3.6e-4,-0.126013 0.95758,-0.174596 2.12876,-0.107984 3.476,0.197768 4.76442,-0.649877 12.35451,-8.127976 3.66659,-3.612506 7.00005,-7.110461 7.40765,-7.773243 1.02215,-1.662002 1.27852,-4.35729 0.60067,-6.314797 l -0.54673,-1.578822 3.15476,-3.032335 c 1.73512,-1.667771 4.37665,-4.148913 5.87007,-5.513647 l 2.71527,-2.481313 0.49665,1.413943 c 0.27317,0.777654 0.83152,3.639549 1.24079,6.359755 1.83053,12.166344 -0.56867,27.137441 -6.81995,42.556758 -1.44789,3.57134 -4.42714,9.87204 -4.63575,9.80393 -0.0478,-0.0152 -1.61129,-1.62305 -3.47425,-3.57199 z M 133.09118,85.041413 C 127.79253,79.612577 120.66156,72.223484 114.7763,66.063565 l -2.28126,-2.387733 4.09258,-1.774333 c 17.00021,-7.370419 34.80978,-9.644608 48.70877,-6.21985 4.03199,0.993489 9.21738,3.002995 9.43397,3.655984 0.0727,0.219137 -2.30683,2.724229 -5.28785,5.56688 l -5.42001,5.168422 -1.76154,-0.89619 c -2.17761,-1.107869 -4.50084,-1.153624 -6.74188,-0.132845 -1.94192,0.884576 -14.98724,13.687456 -16.02043,15.722714 -0.8923,1.757726 -1.17917,3.623551 -0.77489,5.040113 0.18655,0.653387 0.30279,1.187974 0.25852,1.187974 -0.0442,0 -2.69529,-2.678986 -5.8911,-5.953307 z M 12.026975,147.44841 c -1.940009,-0.88539 -3.1348336,-2.60027 -3.3452976,-4.80139 -0.28017,-2.93008 0.327671,-4.00533 4.4032546,-7.78909 4.293069,-3.98569 4.785449,-4.29662 6.803988,-4.29662 2.982024,0 5.435004,1.87095 6.201006,4.72971 0.704115,2.62777 0.223862,3.54297 -4.126293,7.86314 -5.169503,5.13388 -6.673079,5.78367 -9.936658,4.29425 z M 207.28722,35.674747 c -0.41907,-0.421137 -0.72913,-1.221204 -0.72913,-1.881386 0,-1.251796 0.17365,-1.443833 9.19509,-10.167641 4.17979,-4.041879 4.75254,-4.473587 5.79698,-4.369455 1.42846,0.142523 2.70083,1.67244 2.34025,2.814089 -0.13398,0.424382 -3.30182,3.823843 -7.03952,7.554356 -7.27437,7.260367 -7.94015,7.681542 -9.56367,6.050037 z"
       id="path1" /></g></svg>
