<?xml version="1.0" encoding="UTF-8"?>
<svg xmlns="http://www.w3.org/2000/svg" viewBox="0 0 27.79 22.79">
  <path d="m16.59,18.21c-2.58,0-5.17,0-7.75,0-.29,0-.43-.1-.5-.38C6.89,12.46,5.42,7.09,3.96,1.72c-.02-.09-.04-.18-.07-.27-.1-.36-.3-.52-.69-.52-.9,0-1.8,0-2.7,0-.4,0-.63-.38-.42-.69C.15.13.33.01.46.01,1.73,0,3,0,4.28,0c.28,0,.46.17.54.44.2.74.4,1.49.61,2.23.19.68.57.97,1.27.97,6.48,0,12.95,0,19.43,0,.95,0,1.65.62,1.67,1.5,0,.28-.07.57-.14.85-.75,2.8-1.51,5.59-2.27,8.38-.22.82-.78,1.24-1.69,1.24-4.24,0-8.47,0-12.71,0-.54,0-1.08,0-1.62,0-.33,0-.4.1-.32.41.07.25.15.5.2.75.05.27.18.36.46.36,1.44-.01,2.88,0,4.32,0,3.41,0,6.82,0,10.23,0,.48,0,.51.02.51.5,0,.08,0,.17,0,.25,0,.24-.11.34-.34.33-.07,0-.15,0-.22,0-2.54,0-5.07,0-7.61,0Zm4.92-5.48c.24,0,.48,0,.72,0,.37-.01.62-.26.63-.64,0-.3,0-.59,0-.89-.01-.37-.26-.62-.64-.63-.47,0-.95,0-1.42,0-.38,0-.64.27-.66.65,0,.29-.01.58,0,.86.01.38.28.63.66.64.23,0,.46,0,.7,0Zm0-4.33c.25,0,.5,0,.75,0,.36-.01.6-.26.61-.62,0-.3,0-.59,0-.89,0-.36-.25-.62-.61-.63-.5-.02-1-.02-1.5,0-.36.01-.59.28-.61.64-.01.3-.01.59,0,.89.02.36.27.6.63.62.24,0,.48,0,.72,0Zm-9.99,0c.24,0,.48,0,.72,0,.4-.01.64-.25.65-.65,0-.28,0-.56,0-.83,0-.41-.25-.66-.66-.67-.47-.01-.95-.01-1.42,0-.37,0-.63.27-.64.64-.01.3-.01.59,0,.89.02.37.28.61.65.62.23,0,.46,0,.7,0Zm4.98,0c.24,0,.48,0,.72,0,.41,0,.65-.25.67-.66,0-.28,0-.56,0-.83-.01-.39-.26-.64-.65-.65-.48-.01-.96-.01-1.45,0-.37.01-.61.27-.62.65,0,.29,0,.58,0,.86.01.38.26.62.63.64.23,0,.46,0,.7,0Zm.06,4.36h0c.24,0,.48,0,.72,0,.38-.02.62-.26.63-.64,0-.29,0-.57,0-.86,0-.39-.25-.64-.65-.65-.47-.01-.95-.01-1.42,0-.39.01-.64.26-.65.65-.01.28,0,.56,0,.83.01.41.26.65.67.67.23,0,.46,0,.7,0Zm-5.01,0c.24,0,.48,0,.72,0,.38-.01.63-.25.65-.62.02-.31.02-.61,0-.92-.02-.35-.26-.6-.61-.61-.5-.02-1-.02-1.5,0-.36.01-.59.27-.6.63,0,.29,0,.58,0,.86.01.4.25.63.65.65.23,0,.46,0,.7,0Z"/>
  <path d="m22.07,22.79c-1.07,0-1.9-.85-1.89-1.92,0-1.05.86-1.89,1.9-1.89,1.07,0,1.91.86,1.9,1.95,0,1.05-.85,1.87-1.92,1.87Z"/>
  <path d="m10.95,22.79c-1.05,0-1.9-.84-1.9-1.89,0-1.05.85-1.92,1.9-1.93,1.06,0,1.91.84,1.91,1.91,0,1.07-.84,1.9-1.91,1.9Z"/>
</svg>